<svg width="130" height="28" viewBox="0 0 130 28" fill="none" xmlns="http://www.w3.org/2000/svg">
<path d="M36 2.63779V18.3386C36 18.7008 35.8351 19.063 35.5217 19.2992L26.1697 26.7165C25.6913 27.0945 24.9986 27.0945 24.5038 26.7165L14.1456 18.5433C13.6673 18.1654 12.9746 18.1654 12.4797 18.5433L3.12771 25.9291C2.28653 26.5906 1 26.0236 1 24.9685V9.77166C1 9.3937 1.18144 9.04724 1.47833 8.81102L1.64327 8.68504L11.0283 1.28346C11.5066 0.905512 12.1993 0.905512 12.6777 1.28346L22.7059 9.18898C23.1843 9.56693 23.877 9.56693 24.3718 9.18898L33.8723 1.69291C34.7135 1.01574 36 1.58267 36 2.63779Z" stroke="#0000FE" stroke-width="1.8" stroke-miterlimit="10"/>
<path d="M45.5779 10.0996H47.7693V21.25H45.5779V10.0996ZM52.3455 14.4932C52.3455 13.7054 52.1414 13.0967 51.7332 12.667C51.325 12.2373 50.752 12.0225 50.0144 12.0225C49.2983 12.0225 48.7432 12.2122 48.3494 12.5918C47.9626 12.9714 47.7693 13.5049 47.7693 14.1924L47.5437 12.0439C47.8875 11.3708 48.335 10.8516 48.8865 10.4863C49.4451 10.1211 50.061 9.93848 50.7341 9.93848C51.9444 9.93848 52.879 10.3359 53.5378 11.1309C54.2039 11.9186 54.5369 13.0358 54.5369 14.4824V21.25H52.3455V14.4932ZM62.4324 21.4111C61.4011 21.4111 60.5203 21.2178 59.7898 20.8311C59.0593 20.4443 58.5007 19.8786 58.114 19.1338C57.7345 18.3818 57.5447 17.4759 57.5447 16.416V15.1592C57.5447 14.0563 57.7273 13.1146 58.0925 12.334C58.4649 11.5534 59.002 10.959 59.7039 10.5508C60.4057 10.1426 61.2507 9.93848 62.239 9.93848C63.17 9.93848 63.9649 10.1712 64.6238 10.6367C65.2826 11.1022 65.7839 11.7754 66.1277 12.6562C66.4786 13.5371 66.6541 14.5934 66.6541 15.8252V16.5557H59.1345V14.7939H64.5701C64.5056 13.8844 64.2693 13.179 63.8611 12.6777C63.46 12.1693 62.9194 11.915 62.239 11.915C61.4083 11.915 60.7638 12.1872 60.3054 12.7314C59.8542 13.2757 59.6287 14.0456 59.6287 15.041V16.459C59.6287 17.3828 59.8722 18.0918 60.3591 18.5859C60.8461 19.0801 61.5372 19.3271 62.4324 19.3271C62.8764 19.3271 63.3168 19.2376 63.7537 19.0586C64.1905 18.8796 64.5808 18.6289 64.9246 18.3066L66.364 19.7461C65.8126 20.276 65.1931 20.6878 64.5056 20.9814C63.8181 21.2679 63.127 21.4111 62.4324 21.4111ZM72.5623 21.3037C71.6599 21.3037 70.9975 21.0566 70.575 20.5625C70.1596 20.0612 69.9519 19.3236 69.9519 18.3496V6.85547H72.1433V18.3711C72.1433 18.6432 72.197 18.8545 72.3044 19.0049C72.4119 19.1481 72.5694 19.2197 72.7771 19.2197H73.8298V21.3037H72.5623ZM68.8025 10.0996H73.8298V12.0762H68.8025V10.0996ZM83.1755 5.63086H85.3669V21.25H83.1755V5.63086ZM80.3718 21.4434C79.5554 21.4434 78.8572 21.2679 78.2771 20.917C77.7042 20.5589 77.2673 20.0397 76.9666 19.3594C76.6658 18.679 76.5154 17.8626 76.5154 16.9102V14.4502C76.5154 13.4906 76.6622 12.6706 76.9558 11.9902C77.2494 11.3099 77.6755 10.7943 78.2341 10.4434C78.7999 10.0853 79.4766 9.90625 80.2644 9.90625C80.9233 9.90625 81.5248 10.0781 82.0691 10.4219C82.6205 10.7656 83.0645 11.249 83.4011 11.8721L83.1755 14.1494C83.1755 13.6768 83.0896 13.2721 82.9177 12.9355C82.7458 12.599 82.4952 12.3447 82.1658 12.1729C81.8435 11.9938 81.4496 11.9043 80.9841 11.9043C80.2608 11.9043 79.6986 12.1299 79.2976 12.5811C78.9037 13.0322 78.7068 13.666 78.7068 14.4824V16.9102C78.7068 17.7194 78.9037 18.346 79.2976 18.79C79.6986 19.2269 80.2608 19.4453 80.9841 19.4453C81.4496 19.4453 81.8435 19.3558 82.1658 19.1768C82.4952 18.9906 82.7458 18.7256 82.9177 18.3818C83.0896 18.0381 83.1755 17.6263 83.1755 17.1465L83.3259 19.499C83.1039 20.0505 82.7387 20.5124 82.2302 20.8848C81.7289 21.2572 81.1095 21.4434 80.3718 21.4434ZM93.2625 21.4111C92.2312 21.4111 91.3503 21.2178 90.6199 20.8311C89.8894 20.4443 89.3308 19.8786 88.9441 19.1338C88.5645 18.3818 88.3748 17.4759 88.3748 16.416V15.1592C88.3748 14.0563 88.5574 13.1146 88.9226 12.334C89.295 11.5534 89.8321 10.959 90.5339 10.5508C91.2358 10.1426 92.0808 9.93848 93.0691 9.93848C94.0001 9.93848 94.795 10.1712 95.4539 10.6367C96.1127 11.1022 96.614 11.7754 96.9578 12.6562C97.3087 13.5371 97.4841 14.5934 97.4841 15.8252V16.5557H89.9646V14.7939H95.4001C95.3357 13.8844 95.0994 13.179 94.6912 12.6777C94.2901 12.1693 93.7494 11.915 93.0691 11.915C92.2384 11.915 91.5938 12.1872 91.1355 12.7314C90.6843 13.2757 90.4587 14.0456 90.4587 15.041V16.459C90.4587 17.3828 90.7022 18.0918 91.1892 18.5859C91.6762 19.0801 92.3673 19.3271 93.2625 19.3271C93.7065 19.3271 94.1469 19.2376 94.5837 19.0586C95.0206 18.8796 95.4109 18.6289 95.7546 18.3066L97.1941 19.7461C96.6427 20.276 96.0232 20.6878 95.3357 20.9814C94.6482 21.2679 93.9571 21.4111 93.2625 21.4111ZM106.626 10.0996H108.914L104.724 21.25H103.07L98.8806 10.0996H101.169L103.897 18.0596L106.626 10.0996Z" fill="#0000FE"/>
</svg>
