<svg width="130" height="31" viewBox="0 0 130 31" fill="none" xmlns="http://www.w3.org/2000/svg">
<path d="M46 2.82677V20.3392C46 20.7432 45.7879 21.1472 45.385 21.4107L33.361 29.6838C32.746 30.1054 31.8553 30.1054 31.2191 29.6838L17.9015 20.5675C17.2865 20.146 16.3959 20.146 15.7597 20.5675L3.73563 28.8056C2.6541 29.5433 1 28.911 1 27.7341V10.7838C1 10.3622 1.23328 9.97577 1.61499 9.71229L1.82706 9.57177L13.8935 1.31617C14.5085 0.894609 15.3992 0.894609 16.0141 1.31617L28.9076 10.1339C29.5226 10.5554 30.4133 10.5554 31.0495 10.1339L43.2644 1.77286C44.3459 1.01756 46 1.6499 46 2.82677Z" stroke="white" stroke-width="1.8" stroke-miterlimit="10"/>
<path d="M66.5645 13.0996H68.7559V24.25H66.5645V13.0996ZM73.332 17.4932C73.332 16.7054 73.1279 16.0967 72.7197 15.667C72.3115 15.2373 71.7386 15.0225 71.001 15.0225C70.2848 15.0225 69.7298 15.2122 69.3359 15.5918C68.9492 15.9714 68.7559 16.5049 68.7559 17.1924L68.5303 15.0439C68.874 14.3708 69.3216 13.8516 69.873 13.4863C70.4316 13.1211 71.0475 12.9385 71.7207 12.9385C72.931 12.9385 73.8656 13.3359 74.5244 14.1309C75.1904 14.9186 75.5234 16.0358 75.5234 17.4824V24.25H73.332V17.4932ZM83.4189 24.4111C82.3877 24.4111 81.5068 24.2178 80.7764 23.8311C80.0459 23.4443 79.4873 22.8786 79.1006 22.1338C78.721 21.3818 78.5312 20.4759 78.5312 19.416V18.1592C78.5312 17.0563 78.7139 16.1146 79.0791 15.334C79.4515 14.5534 79.9886 13.959 80.6904 13.5508C81.3923 13.1426 82.2373 12.9385 83.2256 12.9385C84.1566 12.9385 84.9515 13.1712 85.6104 13.6367C86.2692 14.1022 86.7705 14.7754 87.1143 15.6562C87.4652 16.5371 87.6406 17.5934 87.6406 18.8252V19.5557H80.1211V17.7939H85.5566C85.4922 16.8844 85.2559 16.179 84.8477 15.6777C84.4466 15.1693 83.9059 14.915 83.2256 14.915C82.3949 14.915 81.7503 15.1872 81.292 15.7314C80.8408 16.2757 80.6152 17.0456 80.6152 18.041V19.459C80.6152 20.3828 80.8587 21.0918 81.3457 21.5859C81.8327 22.0801 82.5238 22.3271 83.4189 22.3271C83.863 22.3271 84.3034 22.2376 84.7402 22.0586C85.1771 21.8796 85.5674 21.6289 85.9111 21.3066L87.3506 22.7461C86.7992 23.276 86.1797 23.6878 85.4922 23.9814C84.8047 24.2679 84.1136 24.4111 83.4189 24.4111ZM93.5488 24.3037C92.6465 24.3037 91.984 24.0566 91.5615 23.5625C91.1462 23.0612 90.9385 22.3236 90.9385 21.3496V9.85547H93.1299V21.3711C93.1299 21.6432 93.1836 21.8545 93.291 22.0049C93.3984 22.1481 93.556 22.2197 93.7637 22.2197H94.8164V24.3037H93.5488ZM89.7891 13.0996H94.8164V15.0762H89.7891V13.0996ZM104.162 8.63086H106.354V24.25H104.162V8.63086ZM101.358 24.4434C100.542 24.4434 99.8438 24.2679 99.2637 23.917C98.6908 23.5589 98.2539 23.0397 97.9531 22.3594C97.6523 21.679 97.502 20.8626 97.502 19.9102V17.4502C97.502 16.4906 97.6488 15.6706 97.9424 14.9902C98.236 14.3099 98.6621 13.7943 99.2207 13.4434C99.7865 13.0853 100.463 12.9062 101.251 12.9062C101.91 12.9062 102.511 13.0781 103.056 13.4219C103.607 13.7656 104.051 14.249 104.388 14.8721L104.162 17.1494C104.162 16.6768 104.076 16.2721 103.904 15.9355C103.732 15.599 103.482 15.3447 103.152 15.1729C102.83 14.9938 102.436 14.9043 101.971 14.9043C101.247 14.9043 100.685 15.1299 100.284 15.5811C99.8903 16.0322 99.6934 16.666 99.6934 17.4824V19.9102C99.6934 20.7194 99.8903 21.346 100.284 21.79C100.685 22.2269 101.247 22.4453 101.971 22.4453C102.436 22.4453 102.83 22.3558 103.152 22.1768C103.482 21.9906 103.732 21.7256 103.904 21.3818C104.076 21.0381 104.162 20.6263 104.162 20.1465L104.312 22.499C104.09 23.0505 103.725 23.5124 103.217 23.8848C102.715 24.2572 102.096 24.4434 101.358 24.4434ZM114.249 24.4111C113.218 24.4111 112.337 24.2178 111.606 23.8311C110.876 23.4443 110.317 22.8786 109.931 22.1338C109.551 21.3818 109.361 20.4759 109.361 19.416V18.1592C109.361 17.0563 109.544 16.1146 109.909 15.334C110.282 14.5534 110.819 13.959 111.521 13.5508C112.222 13.1426 113.067 12.9385 114.056 12.9385C114.987 12.9385 115.782 13.1712 116.44 13.6367C117.099 14.1022 117.601 14.7754 117.944 15.6562C118.295 16.5371 118.471 17.5934 118.471 18.8252V19.5557H110.951V17.7939H116.387C116.322 16.8844 116.086 16.179 115.678 15.6777C115.277 15.1693 114.736 14.915 114.056 14.915C113.225 14.915 112.58 15.1872 112.122 15.7314C111.671 16.2757 111.445 17.0456 111.445 18.041V19.459C111.445 20.3828 111.689 21.0918 112.176 21.5859C112.663 22.0801 113.354 22.3271 114.249 22.3271C114.693 22.3271 115.133 22.2376 115.57 22.0586C116.007 21.8796 116.397 21.6289 116.741 21.3066L118.181 22.7461C117.629 23.276 117.01 23.6878 116.322 23.9814C115.635 24.2679 114.944 24.4111 114.249 24.4111ZM127.612 13.0996H129.9L125.711 24.25H124.057L119.867 13.0996H122.155L124.884 21.0596L127.612 13.0996Z" fill="white"/>
</svg>
